<svg xmlns="http://www.w3.org/2000/svg" shape-rendering="geometricPrecision" text-rendering="geometricPrecision" image-rendering="optimizeQuality" fill-rule="evenodd" clip-rule="evenodd" viewBox="0 0 512 512"><g fill-rule="nonzero"><path fill="#FF5757" d="M145.227 0h221.545c39.962 0 76.279 16.334 102.59 42.638C495.665 68.942 512 105.262 512 145.224v221.549c0 39.961-16.335 76.278-42.638 102.589C443.051 495.666 406.734 512 366.772 512H145.227c-39.965 0-76.278-16.334-102.589-42.638C16.334 443.051 0 406.734 0 366.773V145.224c0-39.962 16.334-76.282 42.638-102.586C68.949 16.334 105.265 0 145.227 0z"/><path fill="#CF4646" d="M205.713 218.151c-4.072.173-6.965 1.525-8.632 4.063-4.532 6.792 1.652 13.504 5.944 18.231 12.175 13.362 42.014 45.477 48.021 52.545 4.554 5.035 11.038 5.035 15.591 0 6.206-7.25 37.547-40.828 49.121-53.826 4.016-4.521 8.981-10.689 4.799-16.95-1.708-2.538-4.57-3.89-8.641-4.063h-24.715V156.93c0-6.523-5.353-11.878-11.879-11.878h-33.005c-6.529 0-11.88 5.348-11.88 11.878v61.221h-24.724zm-79.47 67.615c-3.784-15.645 19.908-21.388 23.689-5.734 1.582 6.528 2.939 13.091 4.244 19.678 2.439 12.314 4.242 20.033 8.791 23.88 4.813 4.074 13.918 5.48 31.366 5.48h132.085c16.108 0 24.512-1.54 28.935-5.538 4.256-3.847 5.924-11.382 8.084-22.948l.047-.228c1.27-6.801 2.586-13.599 4.219-20.324 3.78-15.639 27.448-9.918 23.69 5.708l-.006.023c-1.543 6.398-2.768 12.821-3.97 19.288l-.004.024c-3.181 17.038-5.787 28.727-14.521 36.936-8.604 8.089-22.083 11.51-46.474 11.51H194.334c-25.503 0-39.514-3.069-48.528-11.053-9.237-8.18-12.038-20.057-15.607-38.08-1.233-6.227-2.462-12.451-3.956-18.622z"/><path fill="#fff" d="M200.079 212.518c-4.071.173-6.965 1.524-8.632 4.063-4.531 6.792 1.652 13.503 5.944 18.231 12.175 13.361 42.014 45.476 48.022 52.544 4.554 5.036 11.037 5.036 15.591 0 6.206-7.25 37.546-40.827 49.12-53.825 4.016-4.522 8.982-10.689 4.799-16.95-1.707-2.539-4.57-3.89-8.641-4.063h-24.714v-61.223c0-6.523-5.354-11.879-11.88-11.879h-33.005c-6.529 0-11.88 5.348-11.88 11.879v61.223h-24.724zm-79.47 67.615c-3.784-15.645 19.908-21.388 23.689-5.735 1.582 6.529 2.939 13.091 4.244 19.678 2.439 12.314 4.243 20.033 8.791 23.881 4.813 4.074 13.918 5.479 31.366 5.479h132.086c16.107 0 24.512-1.54 28.934-5.537 4.256-3.848 5.924-11.383 8.084-22.948l.047-.228c1.27-6.802 2.586-13.599 4.22-20.325 3.779-15.639 27.448-9.918 23.689 5.708l-.005.024c-1.543 6.397-2.769 12.821-3.971 19.287l-.004.024c-3.181 17.038-5.787 28.727-14.521 36.937-8.604 8.088-22.083 11.509-46.473 11.509H188.701c-25.503 0-39.515-3.069-48.529-11.052-9.236-8.181-12.038-20.058-15.606-38.081-1.233-6.227-2.462-12.451-3.957-18.621z"/></g></svg>